<svg xmlns="http://www.w3.org/2000/svg" width="300" height="300" viewBox="0 0 79.4 79.4"><path fill="#3c2fae" d="M29.8 53.3c.8 1.3 0 3 1.3 4.1 1 1 2.6 1 4 1.2 3.3.4 9.6 1.5 12.3-1 2.2-2.2 1-7.3 2-10 1.4-3.8 4.1-6.4 6-9.9 2.5-4.5 2.8-9 2-14-1.6-10.3-13.8-16.3-23.4-13A21.5 21.5 0 0023 21.7a22.4 22.4 0 00.5 19.3c2.2 4 6 7.7 6.1 12.4M46 51.7h-2.4c-.1-3.6-.6-7.8.3-11.3 1-4.7 4.6-10.3 2.2-15.1-2-4-3.9-.7-6.5-.6-.9 0-1.7-.7-2.6-.9a4.7 4.7 0 00-5.3 3.3C30.5 31 34 34.8 35 38.3c1.4 4.5.2 9.4 1.3 14-.8 0-2 .3-2.6-.2-1-.8-.6-2.2-.8-3.3-.4-2-1.5-3.9-2.6-5.5-2.2-3.5-4.6-6.8-4.9-11.1-.5-7.9 2.2-17.7 11.1-19.7 2.3-.5 5 .6 7 1.5 7 3 11.1 9.9 9.5 17.6-.8 4-3.3 6.9-5 10.4a26 26 0 00-2.2 9.8m-26.7-39c.9 2 2.2 3.7 4.5 3.2-.8-1.4-2.9-3.4-4.5-3.1m13.2 1.3l-.3.3.3-.3m-.5.3l-.3.2.3-.2M17 16c.5 2 2.2 2.8 4.2 2.7-.7-1.8-2.5-2.6-4.2-2.7m3.1 5.9v-.6c-.6-.3-3.6-2-4.2-1.1-1 1.7 3.5 1.8 4.2 1.7m22 18.5l-4.8.2c-.7-3.8-4.3-8-4.2-11.9 0-1.9 2-4.9 4.1-3 1 1 .1 2-.2 3a9.4 9.4 0 000 4.8c.3.8.7 2.1 1.7 2 4.5-.2.8-7.5 2-9.3 1.6-2.4 3.7-.3 3.8 1.7 0 4.4-2.9 8.4-2.4 12.5M39 28.7v4.8h-.3c-.2-1.6-.6-3.3.3-4.8M59 32.4c.6 2 6.1 3 6.6.6l-6.6-.6m-.3 3.2c.6 2 3.3 2.6 5 1.9-1-1.7-3.2-2.3-5-1.9M57.3 38c.1.5.2.9.5 1.3 2.1 4 3-2-.5-1.3m-16 4v1c-3-1.9-2 .7-3.9 1.9 0-3.2.7-3.5 4-3M40 43.7l-.3.8.3-.8m1.6.8V49c0 .6.5 2.5-.4 2.7-.9.2-1-1.9-1-2.4-.4-2-1-4.3 1.4-5m-3.5 1.3L39 52h-1l-.6-6.3h.8m8.5 8.2c0 4.4-6.6 3.2-9.8 3.2-1.2 0-3.1.3-4.2-.4-1-.5-1.2-1.8-1.4-2.8h15.4m-14.8 5.8v.5c3.6 1.2 7.5 1 11.3 1 .9 0 3.8.3 3.7-1.2-.1-1.2-2.6-.9-3.4-.8-3.6.1-8.2-.5-11.6.5m.2 2.1c1.1 3.1 8.4 2.2 10.9 2 1-.2 2.7 0 3.4-.8 1.6-2-4.2-1.3-4.8-1.2-1.3.1-2.6.3-4 .3-1.8 0-3.6-.3-5.5-.3m-.2 2.4c1.7 3 7.9 2.3 10.8 2 .8 0 3.9 0 3.9-1.2 0-1.4-2.4-.8-3.1-.7-4 .6-7.6 0-11.6-.1M44 70l-.2-1c1.1-.7 1.3-1.8-.3-2.1-2-.4-4.3.4-6.4.5-.8 0-2-.3-2.8.2-1.4 1 .2 2.4 1.3 2.6 2.6.5 6 1 8.4-.2z"/></svg>