<svg xmlns="http://www.w3.org/2000/svg" width="300" height="300" viewBox="0 0 79.4 79.4"><path fill="#3528ab" d="M47.1 71.2l-.5-.7A98 98 0 0042 63c-1.1-1.5-1.1-1.5-2.3-1.5-1.5 0-1.8 0-5.1-1.3a20.7 20.7 0 01-9-6.3c-.6-.8-.8-.9-3-1l-2.7-.3c-.6-.1-1.4-1.5-1.5-2.6 0-.6-.3-.8-1.5-1.2-4.2-1.4-5.6-6.3-1.8-6.5 1.3 0 1.3 0-.9-2-4.1-3.8-3.3-7.3 1.3-6 .5.2.1-.3-1.4-1.7-4.8-4.5-3.2-8.2 2.4-5.6 1.8.8 2 .6.5-.4-4.4-3-4.8-7.5-.6-7.5h1.5l.2-4.4c.2-6.3-.3-6 9.3-6 12.6-.3 12-.9 12 10.7v8.6l1.9 1.9a111.4 111.4 0 013.3 3.3 15.3 15.3 0 003.1 2.5c4.7 2.6 8 8.4 7 12-.2.8.9 2.9 3.8 6.6a115.2 115.2 0 013 4.5c.3.6.5.8 1.7 2.4l1.7 2.2 1.7 2.2c2.4 3 2.7 4.5.8 4a41.2 41.2 0 01-9-10.5c-3.4-4.2-7-9-6.8-9.3.2-.5-.3-3.8-.6-5.2a19 19 0 00-3.2-5.9 31 31 0 01-1.2-2c-.2-.3-.8-.6-2-.9l-6.2-1.5c-4.8-1.3-4.9-1.3-4 1 1 3.1 3.5 4.7 7 4.8 2 0 2.8 1.2 1.8 2.9l-.5 3.6c-1 8.3-1 8.3-3.2 7-1.4-1-3.7-1-9.8-.6l-2.3.1 1.6 1.6c2.6 2.4 6.9 4.1 10.2 4.1 1.5 0 6.5-.7 7.4-1 2.5-1 .9 1.8-1.8 3l-1.2.6.6.9.9 1.2a22.2 22.2 0 012.6 4.4L48 69l.2.3c.5.5.3 2.3-.3 2.3-.2 0-.5-.3-.8-.6zM30.2 50.6c.3-.6-.3-1.6-1-1.6-.6 0-1 .5-1 1 0 1 1.5 1.5 2 .6zm-.9-3h8l.3-1.7c.7-3.6.5-4.6-1-5.5-3.3-2-5-5-4.1-7.2.5-1.4 2.8-1.8 3.9-.7.2.2.6.3.9.3.6 0 .6 0 .6-10.6V11.6h-18l.1 14.8-.1 18c-.2 3.4-.2 3.6 1 3.4.2-.1 4-.2 8.4-.2zm-1.8-18c-1-1.3-1.2-1.7-.6-2 .4 0 1.8 1 1.8 1.4 0 .2.1.5.3.6.4.3.4.4 0 .7-.5.5-.5.5-1.5-.8zm2.6-1.4c-.6-.9-1.2-2.6-1-2.9.5-.8 2.2 1.2 2.2 2.5 0 .8-.8 1-1.2.4zm2.8-.4c-.5-1-.9-4.6-.5-4.8.7-.5 1 .2 1.4 3.1.2 1.7-.4 2.7-.9 1.7zm-14.8 18c0-1.6-.2-1.7-2.2-2.4-2.6-1-2.5 2.2.1 3.4 2.2 1 2.2 1 2.1-1zm0-6.4v-2.3l-1.4-.8c-3-1.7-4-1.7-3.7-.2.2 1.2 4.1 5.7 5 5.7v-2.4zM41.9 33c-1.7-2.1-2-2.3-2.2-1.6-.1.3 0 .7 0 .8l.2.8c0 .4.3.6.9.7l1 .4c1 .9 1 0 .1-1.1zM18.1 31c0-2.3.4-2-3.3-3.4-2-.8-2.6 0-1.4 1.8.5.8 4 3.7 4.5 3.7 0 0 .2-1 .2-2.1zM18 20.2c-.1-.2-.6-.3-1.4-.3-2.3 0-2.3 1.7 0 4.1l1.3 1.5.1-2.5v-2.8zm18-9.8c0-.3-.6-.6-.8-.4-.4.3-.2.6.3.6l.6-.2zm-6.2-.6c0-.6-1.8-.5-1.9 0 0 .5 0 .5 1 .5.6 0 1-.2 1-.5z"/></svg>