<svg id="Layer_1" data-name="Layer 1" xmlns="http://www.w3.org/2000/svg" viewBox="0 0 204.04 250.16"><defs><style>.cls-1,.cls-3{fill:#0049ff;}.cls-2{fill:none;stroke:#0049ff;stroke-linecap:round;stroke-miterlimit:10;stroke-width:14px;}.cls-3{font-size:10.68px;font-family:Mont-HeavyDEMO, Mont;font-weight:800;}.cls-4{letter-spacing:-0.03em;}</style></defs><title>svg-img</title><path class="cls-1" d="M552,578.82c4.68,0,9.37-1.38,13.91-2.53a55,55,0,0,0-17.8-108.22c-24.93,1.9-47.89,24.26-50.4,49.14a55,55,0,0,0,7.34,33.68c.6,1,1.24,2,1.91,3v0c.79,1.14,2.88,2.69,1.5,2.58l-.5-.41c-.86.13-5.4.5-6.27.45h0c-54.54-.45-51.5-56.79-51.5-56.79l1.53-126.24a9.4,9.4,0,0,0-9.14-9.5h0a9.4,9.4,0,0,0-9.64,9.25L431.12,500.4s-6.57,84.8,74,78.68c.84-.06,3.07-.06,4.48,0,4.23.12,12.19-.13,14.93-.41h10.89Z" transform="translate(-430.99 -364)"/><path class="cls-2" d="M626.84,560.46s.08,47.6-48.48,46.68" transform="translate(-430.99 -364)"/><text class="cls-3" transform="translate(187.3 107.5)"><tspan class="cls-4">T</tspan><tspan x="6.24" y="0">M</tspan></text><circle class="cls-1" cx="117.86" cy="244.29" r="5.47"/></svg>